<svg xmlns="http://www.w3.org/2000/svg" xmlns:xlink="http://www.w3.org/1999/xlink" width="500" zoomAndPan="magnify" viewBox="0 0 375 374.999991" height="500" preserveAspectRatio="xMidYMid meet" version="1.0"><path fill="#f6c604" d="M 356.472656 -9.867188 L 18.246094 -9.867188 C 2.75 -9.867188 -9.84375 2.898438 -9.84375 18.570312 L -9.84375 356.105469 C -9.84375 371.773438 2.75 384.539062 18.246094 384.539062 L 356.472656 384.539062 C 371.972656 384.539062 384.652344 371.773438 384.652344 356.105469 L 384.652344 18.570312 C 384.652344 2.898438 371.972656 -9.867188 356.472656 -9.867188 Z M 109.386719 328.195312 L 50.917969 328.195312 L 50.917969 139.972656 L 109.472656 139.972656 L 109.472656 328.195312 Z M 80.152344 114.265625 C 61.394531 114.265625 46.25 99.035156 46.25 80.371094 C 46.25 61.707031 61.394531 46.476562 80.152344 46.476562 C 98.820312 46.476562 114.054688 61.707031 114.054688 80.371094 C 114.054688 99.125 98.90625 114.265625 80.152344 114.265625 Z M 328.558594 328.195312 L 270.089844 328.195312 L 270.089844 236.636719 C 270.089844 214.804688 269.648438 186.722656 239.710938 186.722656 C 209.242188 186.722656 204.574219 210.492188 204.574219 235.054688 L 204.574219 328.195312 L 146.105469 328.195312 L 146.105469 139.972656 L 202.199219 139.972656 L 202.199219 165.679688 L 202.992188 165.679688 C 210.828125 150.890625 229.9375 135.308594 258.378906 135.308594 C 317.554688 135.308594 328.558594 174.308594 328.558594 225.015625 Z M 328.558594 328.195312 " fill-opacity="1" fill-rule="nonzero"/></svg>