<svg xmlns="http://www.w3.org/2000/svg" xmlns:xlink="http://www.w3.org/1999/xlink" width="500" height="500" preserveAspectRatio="xMidYMid meet" version="1.0" viewBox="0 0 375 375" zoomAndPan="magnify"><path fill="#fbfcfb" fill-opacity="1" fill-rule="nonzero" d="M 361.597656 0.660156 L 219.285156 55.371094 L 220.972656 33.910156 C 221.703125 24.535156 211.597656 18.164062 203.394531 22.851562 L 74.195312 97.703125 C 28.273438 124.292969 0 173.289062 0 226.316406 C 0 308.421875 66.578125 375 148.679688 375 C 201.707031 375 250.78125 346.726562 277.367188 300.804688 L 352.148438 171.605469 C 356.910156 163.476562 350.535156 153.296875 341.089844 154.027344 L 319.628906 155.710938 L 374.339844 13.402344 C 374.78125 12.304688 375 11.058594 375 9.886719 C 375 4.394531 370.605469 0 365.113281 0 C 363.867188 0 362.695312 0.21875 361.597656 0.660156 Z M 140.625 328.125 C 88.84375 328.125 46.875 286.15625 46.875 234.375 C 46.875 182.59375 88.84375 140.625 140.625 140.625 C 192.40625 140.625 234.375 182.59375 234.375 234.375 C 234.375 286.15625 192.40625 328.125 140.625 328.125 Z M 140.625 210.9375 C 140.625 197.972656 130.152344 187.5 117.1875 187.5 C 104.222656 187.5 93.75 197.972656 93.75 210.9375 C 93.75 223.902344 104.222656 234.375 117.1875 234.375 C 130.152344 234.375 140.625 223.902344 140.625 210.9375 Z M 152.34375 281.25 C 158.789062 281.25 164.0625 275.976562 164.0625 269.53125 C 164.0625 263.085938 158.789062 257.8125 152.34375 257.8125 C 145.898438 257.8125 140.625 263.085938 140.625 269.53125 C 140.625 275.976562 145.898438 281.25 152.34375 281.25 Z M 152.34375 281.25"/></svg>