<svg xmlns="http://www.w3.org/2000/svg" xmlns:xlink="http://www.w3.org/1999/xlink" width="500" zoomAndPan="magnify" viewBox="0 0 375 374.999991" height="500" preserveAspectRatio="xMidYMid meet" version="1.0"><path fill="#d3b8a5" d="M 165.894531 68.042969 C 176.367188 99.460938 165.671875 131.175781 142.015625 138.941406 C 118.359375 146.703125 90.671875 127.515625 80.199219 96.09375 C 69.726562 64.671875 80.417969 32.960938 104.078125 25.195312 C 127.734375 17.433594 155.417969 36.621094 165.894531 68.042969 Z M 73.535156 145.457031 C 87.378906 169.1875 84.007812 196.800781 66.066406 207.054688 C 48.121094 217.308594 22.339844 206.398438 8.570312 182.664062 C -5.199219 158.933594 -1.976562 131.324219 15.96875 121.070312 C 33.910156 110.816406 59.691406 121.726562 73.460938 145.457031 Z M 50.683594 293.847656 C 89.0625 190.355469 157.25 164.0625 187.5 164.0625 C 217.75 164.0625 285.9375 190.355469 324.316406 293.847656 C 326.953125 300.953125 328.125 308.570312 328.125 316.1875 L 328.125 317.359375 C 328.125 336.253906 312.816406 351.5625 293.921875 351.5625 C 285.496094 351.5625 277.148438 350.539062 269.019531 348.484375 L 204.566406 332.371094 C 193.359375 329.589844 181.640625 329.589844 170.433594 332.371094 L 105.980469 348.484375 C 97.851562 350.535156 89.5 351.5625 81.078125 351.5625 C 62.183594 351.5625 46.875 336.253906 46.875 317.359375 L 46.875 316.1875 C 46.875 308.570312 48.046875 300.953125 50.683594 293.847656 Z M 308.933594 207.054688 C 290.992188 196.800781 287.621094 169.191406 301.464844 145.457031 C 315.308594 121.726562 341.015625 110.816406 358.960938 121.070312 C 376.902344 131.324219 380.273438 158.933594 366.429688 182.664062 C 352.585938 206.394531 326.878906 217.308594 308.933594 207.054688 Z M 227.125 138.941406 C 203.46875 131.175781 192.773438 99.460938 203.246094 68.042969 C 213.71875 36.621094 241.40625 17.429688 265.0625 25.195312 C 288.71875 32.957031 299.414062 64.671875 288.941406 96.09375 C 278.464844 127.515625 250.78125 146.703125 227.125 138.941406 Z M 227.125 138.941406 " fill-opacity="1" fill-rule="nonzero"/></svg>