<svg xmlns="http://www.w3.org/2000/svg" xmlns:xlink="http://www.w3.org/1999/xlink" width="500" zoomAndPan="magnify" viewBox="0 0 375 374.999991" height="500" preserveAspectRatio="xMidYMid meet" version="1.0"><defs><g/><clipPath id="8b40fecc38"><path d="M 215.132812 196.378906 L 374.882812 196.378906 L 374.882812 374.878906 L 215.132812 374.878906 Z M 215.132812 196.378906 " clip-rule="nonzero"/></clipPath><clipPath id="c94667b315"><path d="M 0 6 L 207.75 6 L 207.75 161 L 0 161 Z M 0 6 " clip-rule="nonzero"/></clipPath></defs><g clip-path="url(#8b40fecc38)"><path fill="#0277bd" d="M 374.863281 196.378906 L 215.15625 196.378906 L 229.246094 356.089844 L 295.007812 374.878906 L 360.773438 356.089844 Z M 374.863281 196.378906 " fill-opacity="1" fill-rule="nonzero"/></g><path fill="#039be5" d="M 295.007812 210.472656 L 295.007812 360.316406 L 347.621094 345.285156 L 359.363281 210.472656 Z M 295.007812 210.472656 " fill-opacity="1" fill-rule="nonzero"/><path fill="#ffffff" d="M 337.753906 233.957031 L 295.007812 233.957031 L 295.007812 252.746094 L 318.027344 252.746094 L 316.617188 271.535156 L 295.007812 271.535156 L 295.007812 290.328125 L 315.675781 290.328125 L 314.269531 311.464844 L 295.007812 318.039062 L 295.007812 337.769531 L 332.117188 325.558594 L 335.40625 271.535156 Z M 337.753906 233.957031 " fill-opacity="1" fill-rule="nonzero"/><path fill="#eeeeee" d="M 295.007812 233.957031 L 295.007812 252.746094 L 253.203125 252.746094 L 251.792969 233.957031 Z M 273.402344 271.535156 L 274.339844 290.328125 L 295.007812 290.328125 L 295.007812 271.535156 Z M 275.28125 299.722656 L 256.492188 299.722656 L 257.898438 325.558594 L 295.007812 337.769531 L 295.007812 318.039062 L 275.75 311.464844 Z M 275.28125 299.722656 " fill-opacity="1" fill-rule="nonzero"/><g clip-path="url(#c94667b315)"><path fill="#f06292" d="M 178.519531 95.179688 C 171.308594 95.214844 165.058594 96.945312 159.828125 99.527344 C 157.914062 95.707031 155.972656 92.347656 155.648438 89.851562 C 155.269531 86.9375 154.828125 85.195312 155.289062 81.722656 C 155.746094 78.25 157.757812 73.332031 157.730469 72.960938 C 157.703125 72.589844 157.28125 70.824219 153.121094 70.792969 C 148.960938 70.765625 145.402344 71.59375 144.984375 72.6875 C 144.566406 73.785156 143.765625 76.253906 143.269531 78.832031 C 142.539062 82.597656 134.960938 96.039062 130.660156 103.066406 C 129.253906 100.320312 128.058594 97.90625 127.8125 95.992188 C 127.429688 93.078125 126.988281 91.335938 127.449219 87.863281 C 127.910156 84.394531 129.921875 79.472656 129.894531 79.101562 C 129.863281 78.734375 129.441406 76.96875 125.28125 76.933594 C 121.125 76.90625 117.5625 77.734375 117.148438 78.832031 C 116.730469 79.929688 116.277344 82.492188 115.429688 84.972656 C 114.578125 87.453125 104.507812 109.871094 101.867188 115.683594 C 100.523438 118.644531 99.355469 121.023438 98.527344 122.644531 C 98.523438 122.640625 98.523438 122.636719 98.523438 122.636719 C 98.523438 122.636719 98.472656 122.746094 98.386719 122.925781 C 97.679688 124.308594 97.261719 125.074219 97.261719 125.074219 C 97.261719 125.074219 97.265625 125.082031 97.277344 125.101562 C 96.714844 126.117188 96.113281 127.058594 95.816406 127.058594 C 95.613281 127.058594 95.195312 124.355469 95.90625 120.644531 C 97.40625 112.867188 101.003906 100.742188 100.972656 100.320312 C 100.953125 100.105469 101.644531 97.992188 98.621094 96.886719 C 95.6875 95.816406 94.640625 97.605469 94.375 97.609375 C 94.117188 97.613281 93.921875 98.242188 93.921875 98.242188 C 93.921875 98.242188 97.191406 84.605469 87.6875 84.605469 C 81.738281 84.605469 73.503906 91.101562 69.449219 96.992188 C 66.886719 98.386719 61.40625 101.375 55.59375 104.566406 C 53.363281 105.792969 51.085938 107.046875 48.921875 108.234375 C 48.777344 108.070312 48.625 107.910156 48.476562 107.746094 C 36.945312 95.457031 15.636719 86.769531 16.535156 70.242188 C 16.863281 64.238281 18.957031 48.421875 57.488281 29.238281 C 89.054688 13.527344 114.328125 17.851562 118.695312 27.433594 C 124.929688 41.125 105.1875 66.570312 72.40625 70.242188 C 59.917969 71.644531 53.339844 66.804688 51.703125 65.007812 C 49.980469 63.109375 49.722656 63.023438 49.082031 63.378906 C 48.035156 63.960938 48.695312 65.632812 49.082031 66.632812 C 50.0625 69.175781 54.074219 73.6875 60.921875 75.9375 C 66.949219 77.914062 81.613281 78.996094 99.34375 72.140625 C 119.210938 64.46875 134.71875 43.113281 130.160156 25.265625 C 125.527344 7.117188 95.402344 1.148438 66.886719 11.269531 C 49.898438 17.292969 31.527344 26.746094 18.316406 39.089844 C 2.613281 53.761719 0.109375 66.539062 1.140625 71.875 C 4.808594 90.839844 30.96875 103.1875 41.445312 112.339844 C 40.929688 112.625 40.441406 112.890625 40.003906 113.136719 C 34.75 115.730469 14.804688 126.160156 9.816406 137.175781 C 4.15625 149.667969 10.714844 158.636719 15.058594 159.847656 C 28.511719 163.585938 42.320312 156.855469 49.742188 145.800781 C 57.160156 134.746094 56.257812 120.351562 52.851562 113.78125 C 52.808594 113.703125 52.761719 113.621094 52.71875 113.539062 C 54.074219 112.738281 55.460938 111.921875 56.828125 111.117188 C 59.5 109.546875 62.128906 108.085938 64.402344 106.847656 C 63.125 110.332031 62.195312 114.519531 61.710938 120.558594 C 61.136719 127.648438 64.050781 136.820312 67.859375 140.425781 C 69.539062 142.015625 71.554688 142.050781 72.828125 142.050781 C 77.261719 142.050781 79.28125 138.371094 81.511719 134.011719 C 84.238281 128.671875 86.664062 122.449219 86.664062 122.449219 C 86.664062 122.449219 83.625 139.25 91.90625 139.25 C 94.925781 139.25 97.960938 135.339844 99.316406 133.347656 C 99.320312 133.371094 99.320312 133.378906 99.320312 133.378906 C 99.320312 133.378906 99.402344 133.25 99.554688 132.992188 C 99.871094 132.511719 100.046875 132.207031 100.046875 132.207031 C 100.046875 132.207031 100.054688 132.175781 100.0625 132.121094 C 101.277344 130.015625 103.96875 125.21875 108 117.304688 C 113.214844 107.082031 118.214844 94.273438 118.214844 94.273438 C 118.214844 94.273438 118.679688 97.402344 120.203125 102.585938 C 121.101562 105.628906 123.003906 109 124.507812 112.230469 C 123.300781 113.910156 122.558594 114.867188 122.558594 114.867188 C 122.558594 114.867188 122.5625 114.886719 122.578125 114.921875 C 121.609375 116.203125 120.527344 117.585938 119.394531 118.9375 C 115.277344 123.832031 110.375 129.425781 109.71875 131.039062 C 108.945312 132.9375 109.128906 134.335938 110.625 135.464844 C 111.714844 136.285156 113.65625 136.414062 115.6875 136.28125 C 119.386719 136.03125 121.984375 135.113281 123.269531 134.554688 C 125.273438 133.847656 127.605469 132.738281 129.789062 131.132812 C 133.828125 128.164062 136.261719 123.925781 136.027344 118.304688 C 135.894531 115.207031 134.910156 112.136719 133.660156 109.242188 C 134.023438 108.71875 134.390625 108.183594 134.761719 107.648438 C 141.125 98.355469 146.0625 88.140625 146.0625 88.140625 C 146.0625 88.140625 146.527344 91.269531 148.050781 96.453125 C 148.820312 99.070312 150.34375 101.933594 151.714844 104.734375 C 145.730469 109.59375 142.019531 115.238281 140.730469 118.941406 C 138.347656 125.789062 140.214844 128.890625 143.714844 129.597656 C 145.296875 129.917969 147.539062 129.191406 149.222656 128.480469 C 151.320312 127.785156 153.839844 126.628906 156.191406 124.898438 C 160.230469 121.933594 164.113281 117.785156 163.878906 112.164062 C 163.769531 109.609375 163.078125 107.070312 162.132812 104.632812 C 167.207031 102.519531 173.773438 101.347656 182.140625 102.324219 C 200.085938 104.417969 203.605469 115.609375 202.933594 120.292969 C 202.257812 124.980469 198.496094 127.554688 197.234375 128.335938 C 195.980469 129.113281 195.59375 129.382812 195.699219 129.960938 C 195.851562 130.796875 196.433594 130.769531 197.507812 130.585938 C 198.984375 130.339844 206.929688 126.777344 207.273438 118.128906 C 207.699219 107.140625 197.171875 95.078125 178.519531 95.179688 Z M 40.191406 141.765625 C 34.242188 148.246094 25.941406 150.691406 22.378906 148.628906 C 18.535156 146.40625 20.058594 136.867188 27.351562 129.988281 C 31.796875 125.800781 37.535156 121.9375 41.34375 119.5625 C 42.210938 119.042969 43.480469 118.28125 45.03125 117.351562 C 45.289062 117.207031 45.433594 117.128906 45.433594 117.128906 L 45.429688 117.117188 C 45.726562 116.941406 46.035156 116.757812 46.347656 116.566406 C 49.007812 126.351562 46.433594 134.96875 40.191406 141.765625 Z M 83.5 112.359375 C 81.429688 117.398438 77.097656 130.300781 74.457031 129.609375 C 72.191406 129.011719 70.8125 119.207031 74.007812 109.554688 C 75.609375 104.699219 79.042969 98.894531 81.058594 96.640625 C 84.304688 93.011719 87.878906 91.828125 88.746094 93.300781 C 89.847656 95.171875 84.796875 109.195312 83.5 112.359375 Z M 119.277344 129.410156 C 118.398438 129.871094 117.59375 130.15625 117.222656 129.9375 C 116.945312 129.773438 117.582031 129.167969 117.582031 129.167969 C 117.582031 129.167969 122.058594 124.355469 123.820312 122.167969 C 124.847656 120.894531 126.035156 119.378906 127.328125 117.695312 C 127.335938 117.863281 127.34375 118.03125 127.34375 118.195312 C 127.332031 123.957031 121.761719 127.847656 119.277344 129.410156 Z M 146.835938 123.132812 C 146.179688 122.667969 146.292969 121.164062 148.445312 116.476562 C 149.289062 114.636719 151.222656 111.539062 154.570312 108.578125 C 154.957031 109.796875 155.195312 110.960938 155.1875 112.046875 C 155.148438 119.300781 149.96875 122.007812 146.835938 123.132812 Z M 146.835938 123.132812 " fill-opacity="1" fill-rule="nonzero"/></g><g fill="#ffffff" fill-opacity="1"><g transform="translate(129.112174, 214.499986)"><g><path d="M 112.363281 -40.144531 C 110.714844 -40.507812 109.613281 -40.875 108.332031 -41.058594 C 107.597656 -41.058594 106.679688 -41.058594 105.949219 -40.691406 C 105.765625 -40.507812 105.582031 -40.507812 105.214844 -40.507812 C 104.847656 -40.507812 104.296875 -40.875 103.746094 -40.875 C 103.566406 -40.875 103.382812 -40.875 103.199219 -40.691406 C 102.648438 -40.324219 102.097656 -40.324219 101.363281 -40.324219 C 101 -40.324219 100.449219 -40.324219 100.082031 -40.324219 C 96.78125 -40.324219 93.300781 -40.324219 90 -40.324219 C 89.082031 -40.324219 88.167969 -40.144531 87.066406 -40.144531 C 85.96875 -39.960938 84.683594 -39.777344 83.402344 -39.59375 C 82.484375 -39.59375 81.570312 -39.59375 80.652344 -39.59375 C 80.101562 -39.59375 79.734375 -39.59375 79.1875 -39.59375 C 79.003906 -39.59375 79.003906 -39.59375 78.820312 -39.59375 C 78.085938 -39.59375 77.351562 -39.960938 76.621094 -39.960938 C 76.253906 -39.960938 76.070312 -39.777344 75.886719 -39.777344 C 75.335938 -39.59375 74.785156 -39.59375 74.238281 -39.59375 C 73.503906 -39.59375 72.953125 -39.59375 72.402344 -39.59375 C 71.121094 -39.59375 70.019531 -39.59375 68.921875 -39.226562 C 68.1875 -39.042969 67.636719 -38.859375 66.90625 -38.859375 C 66.539062 -38.859375 66.171875 -38.859375 65.621094 -38.859375 C 64.886719 -38.859375 64.15625 -38.859375 63.421875 -38.492188 C 62.871094 -38.308594 62.320312 -38.859375 61.773438 -38.859375 C 60.304688 -39.226562 60.304688 -39.226562 60.304688 -40.324219 C 60.121094 -42.160156 60.304688 -44.175781 59.9375 -46.007812 C 59.574219 -47.839844 59.574219 -49.675781 59.390625 -51.507812 C 59.390625 -52.421875 59.574219 -53.15625 59.207031 -53.890625 C 58.839844 -55.171875 58.839844 -56.273438 58.839844 -57.371094 C 58.839844 -61.957031 58.839844 -66.355469 58.839844 -70.753906 C 58.65625 -71.671875 58.839844 -72.769531 58.472656 -73.503906 C 57.921875 -75.152344 58.105469 -76.621094 58.105469 -78.085938 C 58.105469 -79.550781 58.105469 -80.835938 58.105469 -82.300781 C 57.921875 -83.035156 57.554688 -83.585938 56.824219 -83.953125 C 56.640625 -83.953125 56.457031 -83.953125 56.273438 -83.953125 C 55.539062 -83.953125 54.988281 -83.769531 54.625 -83.402344 C 53.523438 -82.117188 52.421875 -80.835938 53.707031 -79.003906 C 53.890625 -78.820312 53.890625 -78.269531 53.890625 -77.902344 C 53.707031 -76.253906 53.890625 -74.417969 53.523438 -72.769531 C 53.15625 -71.304688 53.890625 -69.835938 53.339844 -68.371094 C 54.257812 -66.171875 53.523438 -63.972656 53.707031 -61.773438 C 53.890625 -60.671875 53.707031 -59.574219 53.890625 -58.65625 C 54.625 -56.824219 54.441406 -55.171875 54.441406 -53.339844 C 54.441406 -52.242188 54.257812 -51.140625 54.625 -50.222656 C 55.171875 -48.574219 55.171875 -46.925781 55.171875 -45.457031 C 55.171875 -44.726562 55.355469 -43.992188 55.539062 -43.257812 C 56.089844 -41.792969 55.90625 -40.144531 55.90625 -38.675781 C 54.074219 -37.394531 52.242188 -37.394531 50.40625 -36.84375 C 49.859375 -37.210938 49.308594 -37.210938 48.941406 -37.210938 C 48.023438 -37.210938 47.292969 -36.84375 46.375 -36.660156 C 45.640625 -36.292969 44.910156 -36.109375 43.992188 -36.109375 C 42.160156 -36.109375 40.507812 -35.925781 38.859375 -35.558594 C 36.84375 -35.011719 32.078125 -34.09375 30.0625 -34.09375 C 29.878906 -34.09375 29.695312 -34.09375 29.511719 -34.09375 C 27.863281 -34.09375 26.394531 -33.359375 24.746094 -33.359375 C 24.5625 -33.359375 24.195312 -33.359375 24.011719 -33.359375 C 21.445312 -32.445312 18.695312 -32.261719 16.3125 -30.792969 C 14.847656 -29.878906 13.382812 -29.144531 11.730469 -28.59375 C 9.898438 -28.042969 8.980469 -26.945312 8.066406 -25.480469 C 7.515625 -24.5625 7.148438 -23.828125 8.066406 -22.914062 C 8.796875 -21.996094 9.347656 -20.894531 10.632812 -20.347656 C 11.179688 -19.980469 11.730469 -19.613281 11.914062 -19.0625 C 12.832031 -17.046875 17.964844 -11.179688 19.613281 -9.53125 C 21.078125 -7.882812 22.730469 -6.414062 24.195312 -4.765625 C 25.660156 -3.484375 27.128906 -2.382812 28.777344 -1.464844 C 29.878906 -0.917969 31.160156 -0.367188 32.261719 0.367188 C 33.175781 0.917969 34.460938 1.28125 35.195312 2.015625 C 36.109375 3.117188 37.578125 3.117188 38.492188 4.03125 C 39.410156 4.765625 40.324219 4.765625 41.425781 4.765625 C 41.792969 4.765625 42.160156 4.765625 42.527344 4.765625 C 43.625 4.765625 44.726562 4.949219 45.640625 5.867188 C 46.007812 6.230469 46.742188 6.414062 47.476562 6.414062 C 47.65625 6.414062 47.839844 6.414062 48.023438 6.414062 C 48.941406 6.414062 49.308594 6.414062 50.222656 6.78125 C 52.058594 7.148438 53.707031 7.515625 55.355469 8.066406 C 55.90625 8.066406 56.273438 8.066406 56.640625 7.882812 C 58.289062 6.78125 59.9375 6.050781 61.589844 5.316406 C 62.503906 4.949219 63.054688 4.398438 62.871094 3.484375 C 62.871094 2.199219 63.238281 1.101562 63.789062 0.183594 C 64.15625 -0.367188 64.339844 -0.917969 64.339844 -1.464844 C 64.523438 -2.75 64.339844 -3.847656 64.886719 -4.949219 C 65.070312 -5.5 65.070312 -6.230469 65.070312 -6.597656 C 64.523438 -8.433594 64.703125 -10.265625 64.15625 -11.914062 C 63.605469 -14.480469 63.054688 -17.046875 62.6875 -19.613281 C 62.140625 -22.363281 61.40625 -25.113281 61.589844 -28.042969 C 61.589844 -28.960938 61.589844 -29.878906 61.039062 -30.792969 C 60.671875 -31.710938 60.855469 -32.628906 61.957031 -33.175781 C 62.320312 -33.359375 62.6875 -33.542969 62.871094 -34.09375 C 63.421875 -35.011719 63.605469 -35.195312 64.15625 -35.195312 C 64.523438 -35.195312 64.886719 -35.195312 65.4375 -35.011719 C 65.070312 -34.644531 64.523438 -34.828125 64.15625 -34.644531 C 63.972656 -34.460938 63.789062 -34.277344 64.15625 -33.910156 C 64.15625 -33.910156 64.15625 -33.726562 64.339844 -33.726562 C 64.703125 -33.542969 64.886719 -33.542969 65.253906 -33.726562 C 66.90625 -34.644531 69.289062 -34.277344 70.570312 -35.925781 C 72.21875 -36.292969 74.054688 -36.476562 75.703125 -36.84375 C 76.253906 -36.84375 76.800781 -36.84375 77.167969 -36.84375 C 78.085938 -36.84375 78.820312 -36.84375 79.550781 -37.210938 C 79.734375 -37.394531 80.101562 -37.394531 80.46875 -37.210938 C 80.835938 -37.027344 81.203125 -36.84375 81.570312 -36.84375 C 82.117188 -36.84375 82.667969 -37.027344 83.21875 -37.210938 C 83.585938 -37.394531 83.953125 -37.578125 84.316406 -37.578125 C 84.867188 -37.578125 85.234375 -37.210938 85.601562 -36.660156 C 85.785156 -36.109375 86.152344 -36.476562 86.335938 -36.660156 C 87.066406 -37.394531 87.800781 -37.394531 88.71875 -37.578125 C 89.632812 -37.578125 90.367188 -37.578125 91.285156 -37.578125 C 92.199219 -37.578125 93.117188 -37.578125 93.847656 -37.941406 C 94.03125 -37.941406 94.03125 -37.941406 94.214844 -37.941406 C 94.582031 -37.941406 94.949219 -37.941406 95.316406 -37.941406 C 95.5 -37.761719 96.050781 -37.578125 96.234375 -37.761719 C 97.332031 -38.125 98.433594 -38.308594 99.53125 -38.308594 C 101 -38.308594 102.464844 -38.308594 103.929688 -38.308594 C 106.128906 -38.492188 108.332031 -38.675781 110.53125 -39.042969 C 110.898438 -39.226562 111.445312 -39.59375 112.363281 -40.144531 Z M 51.691406 1.832031 C 50.773438 1.832031 50.039062 1.832031 49.125 1.832031 C 48.757812 1.832031 48.207031 1.832031 47.839844 1.832031 C 44.175781 1.101562 41.242188 0.183594 37.941406 -1.464844 C 35.195312 -2.566406 32.8125 -4.582031 30.429688 -6.230469 C 28.226562 -7.882812 26.394531 -9.898438 24.195312 -11.546875 C 24.011719 -11.730469 23.644531 -11.914062 23.460938 -12.28125 C 22.363281 -14.113281 21.078125 -15.945312 19.429688 -17.414062 C 18.878906 -17.78125 18.511719 -18.511719 18.328125 -19.246094 C 17.964844 -19.980469 17.414062 -20.714844 16.679688 -21.445312 C 15.582031 -22.730469 15.582031 -24.746094 16.863281 -25.84375 C 17.046875 -26.027344 17.414062 -26.210938 17.78125 -26.210938 C 18.878906 -26.210938 19.980469 -26.210938 21.078125 -25.660156 C 21.445312 -25.480469 21.8125 -25.480469 22.179688 -25.480469 C 22.730469 -25.480469 23.277344 -25.660156 23.828125 -26.027344 C 24.378906 -26.578125 24.929688 -26.761719 25.660156 -26.945312 C 28.59375 -27.496094 31.527344 -28.042969 34.644531 -28.59375 C 37.761719 -29.144531 41.058594 -29.695312 44.175781 -30.609375 C 46.191406 -31.160156 48.207031 -30.976562 50.222656 -31.710938 C 51.324219 -32.078125 52.789062 -31.894531 54.074219 -32.078125 C 54.988281 -32.261719 55.539062 -32.261719 55.90625 -32.261719 C 57.007812 -32.261719 57.191406 -31.710938 57.191406 -29.878906 C 57.371094 -26.761719 57.921875 -23.828125 58.65625 -20.894531 C 59.207031 -17.964844 59.390625 -14.847656 60.304688 -11.914062 C 60.855469 -9.714844 60.488281 -7.332031 61.40625 -5.132812 C 61.773438 -4.03125 61.039062 -2.75 60.488281 -1.832031 C 59.023438 0.367188 57.191406 2.015625 54.074219 2.015625 C 53.339844 1.832031 52.605469 1.832031 51.691406 1.832031 Z M 46.375 4.398438 C 46.925781 4.03125 47.65625 3.484375 48.207031 3.484375 C 48.574219 3.484375 48.757812 3.664062 49.125 3.847656 C 50.039062 4.214844 50.957031 4.03125 51.875 4.214844 C 52.058594 4.214844 52.242188 4.582031 52.242188 4.765625 C 52.058594 4.949219 51.875 5.316406 51.691406 5.316406 C 51.140625 5.5 50.773438 5.5 50.222656 5.5 C 48.941406 5.5 47.65625 5.132812 46.375 4.398438 Z M 52.789062 -33.542969 C 52.605469 -33.542969 52.421875 -33.359375 52.242188 -33.359375 C 52.242188 -33.359375 52.058594 -33.542969 52.058594 -33.726562 C 52.242188 -33.726562 52.421875 -33.726562 52.605469 -33.910156 C 52.605469 -33.910156 52.789062 -33.726562 52.789062 -33.542969 Z M 59.207031 -23.097656 L 59.023438 -22.914062 L 59.023438 -23.097656 Z M 21.8125 -11.730469 L 21.628906 -11.730469 L 21.8125 -11.914062 Z M 19.0625 -14.480469 L 18.878906 -14.664062 L 19.0625 -14.664062 Z M 67.636719 -35.742188 L 67.453125 -35.742188 L 67.636719 -35.925781 Z M 61.957031 -35.195312 L 61.957031 -35.011719 L 61.773438 -35.011719 Z M 78.820312 -35.558594 L 78.820312 -35.742188 L 78.636719 -35.742188 Z M 78.820312 -35.558594 "/></g></g></g></svg>