<svg xmlns="http://www.w3.org/2000/svg" xmlns:xlink="http://www.w3.org/1999/xlink" width="500" zoomAndPan="magnify" viewBox="0 0 375 374.999991" height="500" preserveAspectRatio="xMidYMid meet" version="1.0"><path fill="#00acee" d="M 336.453125 111.121094 C 336.691406 114.449219 336.691406 117.78125 336.691406 121.113281 C 336.691406 222.714844 259.359375 339.785156 118.019531 339.785156 C 74.476562 339.785156 34.027344 327.171875 0 305.28125 C 6.1875 305.996094 12.136719 306.234375 18.558594 306.234375 C 54.488281 306.234375 87.5625 294.101562 113.976562 273.398438 C 80.1875 272.683594 51.871094 250.554688 42.117188 220.097656 C 46.875 220.8125 51.632812 221.289062 56.632812 221.289062 C 63.53125 221.289062 70.433594 220.335938 76.855469 218.671875 C 41.640625 211.53125 15.226562 180.601562 15.226562 143.242188 L 15.226562 142.292969 C 25.460938 148.003906 37.355469 151.570312 49.96875 152.046875 C 29.265625 138.246094 15.703125 114.6875 15.703125 88.039062 C 15.703125 73.761719 19.511719 60.675781 26.171875 49.253906 C 64.007812 95.890625 120.875 126.347656 184.644531 129.679688 C 183.453125 123.96875 182.738281 118.019531 182.738281 112.074219 C 182.738281 69.71875 217.003906 35.214844 259.597656 35.214844 C 281.722656 35.214844 301.710938 44.496094 315.75 59.488281 C 333.121094 56.15625 349.777344 49.730469 364.527344 40.925781 C 358.816406 58.773438 346.683594 73.765625 330.742188 83.28125 C 346.207031 81.617188 361.199219 77.332031 375 71.382812 C 364.53125 86.613281 351.441406 100.175781 336.453125 111.121094 Z M 336.453125 111.121094 " fill-opacity="1" fill-rule="nonzero"/></svg>